{
    "asset" : {
        "generator" : "Khronos glTF Blender I/O v0.9.36",
        "version" : "2.0"
    },
    "scene" : 0,
    "scenes" : [
        {
            "name" : "Scene",
            "nodes" : [
                0
            ]
        }
    ],
    "nodes" : [
        {
            "mesh" : 0,
            "name" : "floor"
        }
    ],
    "materials" : [
        {
            "doubleSided" : true,
            "name" : "factory_floor",
            "pbrMetallicRoughness" : {
                "baseColorFactor" : [
                    0.7944415211677551,
                    0.3036573827266693,
                    0.8000000715255737,
                    1
                ],
                "metallicFactor" : 1,
                "roughnessFactor" : 0.5
            }
        },
        {
            "doubleSided" : true,
            "name" : "factory_frame",
            "pbrMetallicRoughness" : {
                "baseColorFactor" : [
                    0,
                    0.7442134022712708,
                    0.8000000715255737,
                    1
                ],
                "metallicFactor" : 0,
                "roughnessFactor" : 0.5
            }
        },
        {
            "doubleSided" : true,
            "name" : "factory_coil",
            "pbrMetallicRoughness" : {
                "baseColorFactor" : [
                    0.8000000715255737,
                    0.21453291177749634,
                    0,
                    1
                ],
                "metallicFactor" : 1,
                "roughnessFactor" : 0.5
            }
        }
    ],
    "meshes" : [
        {
            "name" : "Cube.016",
            "primitives" : [
                {
                    "attributes" : {
                        "POSITION" : 0,
                        "NORMAL" : 1,
                        "TEXCOORD_0" : 2
                    },
                    "indices" : 3,
                    "material" : 0
                },
                {
                    "attributes" : {
                        "POSITION" : 4,
                        "NORMAL" : 5,
                        "TEXCOORD_0" : 6
                    },
                    "indices" : 7,
                    "material" : 1
                },
                {
                    "attributes" : {
                        "POSITION" : 8,
                        "NORMAL" : 9,
                        "TEXCOORD_0" : 10
                    },
                    "indices" : 11,
                    "material" : 2
                }
            ]
        }
    ],
    "accessors" : [
        {
            "bufferView" : 0,
            "componentType" : 5126,
            "count" : 40,
            "max" : [
                5,
                0.5,
                5
            ],
            "min" : [
                -5,
                0,
                -5
            ],
            "type" : "VEC3"
        },
        {
            "bufferView" : 1,
            "componentType" : 5126,
            "count" : 40,
            "type" : "VEC3"
        },
        {
            "bufferView" : 2,
            "componentType" : 5126,
            "count" : 40,
            "type" : "VEC2"
        },
        {
            "bufferView" : 3,
            "componentType" : 5123,
            "count" : 60,
            "type" : "SCALAR"
        },
        {
            "bufferView" : 4,
            "componentType" : 5126,
            "count" : 142,
            "max" : [
                4.990000247955322,
                10.000000953674316,
                4.990000247955322
            ],
            "min" : [
                -4.990000247955322,
                0,
                -4.990001201629639
            ],
            "type" : "VEC3"
        },
        {
            "bufferView" : 5,
            "componentType" : 5126,
            "count" : 142,
            "type" : "VEC3"
        },
        {
            "bufferView" : 6,
            "componentType" : 5126,
            "count" : 142,
            "type" : "VEC2"
        },
        {
            "bufferView" : 7,
            "componentType" : 5123,
            "count" : 288,
            "type" : "SCALAR"
        },
        {
            "bufferView" : 8,
            "componentType" : 5126,
            "count" : 4492,
            "max" : [
                4.946569442749023,
                8.243946075439453,
                3.243945837020874
            ],
            "min" : [
                -4.893946647644043,
                1.7560546398162842,
                -3.243945837020874
            ],
            "type" : "VEC3"
        },
        {
            "bufferView" : 9,
            "componentType" : 5126,
            "count" : 4492,
            "type" : "VEC3"
        },
        {
            "bufferView" : 10,
            "componentType" : 5126,
            "count" : 4492,
            "type" : "VEC2"
        },
        {
            "bufferView" : 11,
            "componentType" : 5123,
            "count" : 6912,
            "type" : "SCALAR"
        }
    ],
    "bufferViews" : [
        {
            "buffer" : 0,
            "byteLength" : 480,
            "byteOffset" : 0
        },
        {
            "buffer" : 0,
            "byteLength" : 480,
            "byteOffset" : 480
        },
        {
            "buffer" : 0,
            "byteLength" : 320,
            "byteOffset" : 960
        },
        {
            "buffer" : 0,
            "byteLength" : 120,
            "byteOffset" : 1280
        },
        {
            "buffer" : 0,
            "byteLength" : 1704,
            "byteOffset" : 1400
        },
        {
            "buffer" : 0,
            "byteLength" : 1704,
            "byteOffset" : 3104
        },
        {
            "buffer" : 0,
            "byteLength" : 1136,
            "byteOffset" : 4808
        },
        {
            "buffer" : 0,
            "byteLength" : 576,
            "byteOffset" : 5944
        },
        {
            "buffer" : 0,
            "byteLength" : 53904,
            "byteOffset" : 6520
        },
        {
            "buffer" : 0,
            "byteLength" : 53904,
            "byteOffset" : 60424
        },
        {
            "buffer" : 0,
            "byteLength" : 35936,
            "byteOffset" : 114328
        },
        {
            "buffer" : 0,
            "byteLength" : 13824,
            "byteOffset" : 150264
        }
    ],
    "buffers" : [
        {
            "byteLength" : 164088,
            "uri" : "data:application/octet-stream;base64,"
        }
    ]
}
