{
    "asset" : {
        "generator" : "Khronos glTF Blender I/O v0.9.36",
        "version" : "2.0"
    },
    "scene" : 0,
    "scenes" : [
        {
            "name" : "Scene",
            "nodes" : [
                0
            ]
        }
    ],
    "nodes" : [
        {
            "mesh" : 0,
            "name" : "Ship",
            "translation" : [
                0,
                0,
                1.4635303020477295
            ]
        }
    ],
    "materials" : [
        {
            "doubleSided" : true,
            "name" : "Cockpit.001",
            "pbrMetallicRoughness" : {
                "baseColorFactor" : [
                    0,
                    0.0016881535993888974,
                    0.037399984896183014,
                    1
                ],
                "metallicFactor" : 0,
                "roughnessFactor" : 0.5
            }
        },
        {
            "doubleSided" : true,
            "name" : "Body.001",
            "pbrMetallicRoughness" : {
                "baseColorFactor" : [
                    0.24619069695472717,
                    0.24619069695472717,
                    0.24619069695472717,
                    1
                ],
                "metallicFactor" : 0.4502924084663391,
                "roughnessFactor" : 0.628654956817627
            }
        },
        {
            "doubleSided" : true,
            "name" : "Primary Color.001",
            "pbrMetallicRoughness" : {
                "baseColorFactor" : [
                    0.8000000715255737,
                    0.5039293169975281,
                    0.05726125091314316,
                    1
                ],
                "metallicFactor" : 0,
                "roughnessFactor" : 0.5
            }
        },
        {
            "doubleSided" : true,
            "name" : "Lighty.001",
            "pbrMetallicRoughness" : {
                "baseColorFactor" : [
                    0.30054378509521484,
                    0.30946895480155945,
                    0.30946895480155945,
                    1
                ],
                "metallicFactor" : 0,
                "roughnessFactor" : 0.5
            }
        }
    ],
    "meshes" : [
        {
            "name" : "Cube.002",
            "primitives" : [
                {
                    "attributes" : {
                        "POSITION" : 0,
                        "NORMAL" : 1,
                        "TEXCOORD_0" : 2
                    },
                    "indices" : 3,
                    "material" : 0
                },
                {
                    "attributes" : {
                        "POSITION" : 4,
                        "NORMAL" : 5,
                        "TEXCOORD_0" : 6
                    },
                    "indices" : 7,
                    "material" : 1
                },
                {
                    "attributes" : {
                        "POSITION" : 8,
                        "NORMAL" : 9,
                        "TEXCOORD_0" : 10
                    },
                    "indices" : 11,
                    "material" : 2
                },
                {
                    "attributes" : {
                        "POSITION" : 12,
                        "NORMAL" : 13,
                        "TEXCOORD_0" : 14
                    },
                    "indices" : 15,
                    "material" : 3
                }
            ]
        }
    ],
    "accessors" : [
        {
            "bufferView" : 0,
            "componentType" : 5126,
            "count" : 26,
            "max" : [
                0.6003668308258057,
                1.111449956893921,
                1.414636492729187
            ],
            "min" : [
                -0.6003668308258057,
                0.2308351844549179,
                -0.934510350227356
            ],
            "type" : "VEC3"
        },
        {
            "bufferView" : 1,
            "componentType" : 5126,
            "count" : 26,
            "type" : "VEC3"
        },
        {
            "bufferView" : 2,
            "componentType" : 5126,
            "count" : 26,
            "type" : "VEC2"
        },
        {
            "bufferView" : 3,
            "componentType" : 5123,
            "count" : 48,
            "type" : "SCALAR"
        },
        {
            "bufferView" : 4,
            "componentType" : 5126,
            "count" : 1530,
            "max" : [
                4.593466281890869,
                1,
                3.9860687255859375
            ],
            "min" : [
                -4.593466281890869,
                -1.0480232238769531,
                -5.001758575439453
            ],
            "type" : "VEC3"
        },
        {
            "bufferView" : 5,
            "componentType" : 5126,
            "count" : 1530,
            "type" : "VEC3"
        },
        {
            "bufferView" : 6,
            "componentType" : 5126,
            "count" : 1530,
            "type" : "VEC2"
        },
        {
            "bufferView" : 7,
            "componentType" : 5123,
            "count" : 2760,
            "type" : "SCALAR"
        },
        {
            "bufferView" : 8,
            "componentType" : 5126,
            "count" : 73,
            "max" : [
                4.590774059295654,
                1,
                3.9860687255859375
            ],
            "min" : [
                -4.590774059295654,
                -0.9119769930839539,
                -3.8714585304260254
            ],
            "type" : "VEC3"
        },
        {
            "bufferView" : 9,
            "componentType" : 5126,
            "count" : 73,
            "type" : "VEC3"
        },
        {
            "bufferView" : 10,
            "componentType" : 5126,
            "count" : 73,
            "type" : "VEC2"
        },
        {
            "bufferView" : 11,
            "componentType" : 5123,
            "count" : 132,
            "type" : "SCALAR"
        },
        {
            "bufferView" : 12,
            "componentType" : 5126,
            "count" : 54,
            "max" : [
                0.8267362713813782,
                0.7267147302627563,
                1.6414711475372314
            ],
            "min" : [
                -0.8267362713813782,
                -0.3333333134651184,
                -4.226208686828613
            ],
            "type" : "VEC3"
        },
        {
            "bufferView" : 13,
            "componentType" : 5126,
            "count" : 54,
            "type" : "VEC3"
        },
        {
            "bufferView" : 14,
            "componentType" : 5126,
            "count" : 54,
            "type" : "VEC2"
        },
        {
            "bufferView" : 15,
            "componentType" : 5123,
            "count" : 84,
            "type" : "SCALAR"
        }
    ],
    "bufferViews" : [
        {
            "buffer" : 0,
            "byteLength" : 312,
            "byteOffset" : 0
        },
        {
            "buffer" : 0,
            "byteLength" : 312,
            "byteOffset" : 312
        },
        {
            "buffer" : 0,
            "byteLength" : 208,
            "byteOffset" : 624
        },
        {
            "buffer" : 0,
            "byteLength" : 96,
            "byteOffset" : 832
        },
        {
            "buffer" : 0,
            "byteLength" : 18360,
            "byteOffset" : 928
        },
        {
            "buffer" : 0,
            "byteLength" : 18360,
            "byteOffset" : 19288
        },
        {
            "buffer" : 0,
            "byteLength" : 12240,
            "byteOffset" : 37648
        },
        {
            "buffer" : 0,
            "byteLength" : 5520,
            "byteOffset" : 49888
        },
        {
            "buffer" : 0,
            "byteLength" : 876,
            "byteOffset" : 55408
        },
        {
            "buffer" : 0,
            "byteLength" : 876,
            "byteOffset" : 56284
        },
        {
            "buffer" : 0,
            "byteLength" : 584,
            "byteOffset" : 57160
        },
        {
            "buffer" : 0,
            "byteLength" : 264,
            "byteOffset" : 57744
        },
        {
            "buffer" : 0,
            "byteLength" : 648,
            "byteOffset" : 58008
        },
        {
            "buffer" : 0,
            "byteLength" : 648,
            "byteOffset" : 58656
        },
        {
            "buffer" : 0,
            "byteLength" : 432,
            "byteOffset" : 59304
        },
        {
            "buffer" : 0,
            "byteLength" : 168,
            "byteOffset" : 59736
        }
    ],
    "buffers" : [
        {
            "byteLength" : 59904,
            "uri" : "data:application/octet-stream;base64,"
        }
    ]
}
